<svg width="26" height="25" viewBox="0 0 26 25" fill="none" xmlns="http://www.w3.org/2000/svg">
<path fill-rule="evenodd" clip-rule="evenodd" d="M13 1.56253C13.2072 1.56253 13.4059 1.64484 13.5524 1.79135C13.6989 1.93787 13.7812 2.13658 13.7812 2.34378V20.7703L18.6969 15.8532C18.8436 15.7065 19.0425 15.624 19.25 15.624C19.4575 15.624 19.6564 15.7065 19.8031 15.8532C19.9498 15.9999 20.0322 16.1988 20.0322 16.4063C20.0322 16.6137 19.9498 16.8127 19.8031 16.9594L13.5531 23.2094C13.4806 23.2822 13.3943 23.3399 13.2994 23.3793C13.2045 23.4187 13.1028 23.4389 13 23.4389C12.8972 23.4389 12.7955 23.4187 12.7006 23.3793C12.6057 23.3399 12.5194 23.2822 12.4469 23.2094L6.19687 16.9594C6.05018 16.8127 5.96776 16.6137 5.96776 16.4063C5.96776 16.1988 6.05018 15.9999 6.19687 15.8532C6.34357 15.7065 6.54254 15.624 6.75 15.624C6.95746 15.624 7.15643 15.7065 7.30312 15.8532L12.2187 20.7703V2.34378C12.2187 2.13658 12.3011 1.93787 12.4476 1.79135C12.5941 1.64484 12.7928 1.56253 13 1.56253Z" fill="white"/>
</svg>
